<?xml version="1.0" encoding="UTF-8"?><svg id="Calque_2" xmlns="http://www.w3.org/2000/svg" viewBox="0 0 551.43 214.65"><defs><style>.cls-1{fill:#fff;stroke-width:0px;}</style></defs><g id="Livello_1"><path class="cls-1" d="m349.41,185.56c.13-1.93,1.02-3.53,2.74-4.88,1.72-1.35,3.75-2.06,6.11-2.06,2.23,0,4.07.71,5.6,2.06,1.53,1.35,2.29,3.02,2.29,4.88h-16.73Zm-7.75,3.75c0,5.03,1.52,9.1,4.64,12.15,3.11,2.99,7.25,4.51,12.27,4.51s8.71-1.39,11.83-3.55v-7.5c-2.67,2.48-6.48,4.39-11.51,4.39-5.66,0-9.42-3.25-9.67-8.34h24.55c.06-.83.13-1.78.13-2.73,0-4.53-1.46-8.38-4.38-11.45-2.86-3.11-6.61-4.64-11.26-4.64s-8.84,1.53-11.96,4.64c-3.11,3.06-4.64,7.17-4.64,12.21v.32Z"/><path class="cls-1" d="m376.63,202.41c3.37,2.29,7.24,3.43,11.76,3.43s7.63-.95,9.73-2.86c2.1-1.97,3.18-4.26,3.18-6.99,0-3.12-1.02-5.34-3.56-7.06-1.21-.83-2.35-1.53-3.3-1.97-.95-.44-2.35-1.08-4.2-1.78-.96-.38-2.04-.76-2.8-1.02-.7-.32-.83-.45-1.34-.7-.83-.51-1.27-1.14-1.27-2.04,0-1.84,1.53-2.74,4.65-2.74s5.79.83,8.33,2.42v-6.93c-2.29-1.46-5.15-2.16-8.65-2.16-3.31,0-6.04.83-8.27,2.48-2.16,1.65-3.24,3.94-3.24,6.8,0,4.01,2.29,7.06,6.8,9.03,1.46.57,4.14,1.65,5.41,2.23.7.26,1.34.57,2.04.95,1.46.76,2.04,1.59,2.04,2.61,0,1.97-2.04,3.05-5.41,3.05-4.77,0-8.77-1.4-11.89-4.26v7.5Z"/><path class="cls-1" d="m404.04,202.41c3.37,2.29,7.24,3.43,11.76,3.43s7.63-.95,9.73-2.86c2.1-1.97,3.18-4.26,3.18-6.99,0-3.12-1.02-5.34-3.56-7.06-1.21-.83-2.35-1.53-3.3-1.97-.95-.44-2.35-1.08-4.2-1.78-.96-.38-2.04-.76-2.8-1.02-.7-.32-.83-.45-1.34-.7-.83-.51-1.27-1.14-1.27-2.04,0-1.84,1.53-2.74,4.65-2.74s5.79.83,8.33,2.42v-6.93c-2.29-1.46-5.15-2.16-8.65-2.16-3.31,0-6.04.83-8.27,2.48-2.16,1.65-3.24,3.94-3.24,6.8,0,4.01,2.29,7.06,6.8,9.03,1.46.57,4.14,1.65,5.41,2.23.7.26,1.34.57,2.04.95,1.46.76,2.04,1.59,2.04,2.61,0,1.97-2.04,3.05-5.41,3.05-4.77,0-8.77-1.4-11.89-4.26v7.5Z"/><path class="cls-1" d="m439.83,172.97h-7.62v32.05h7.62v-32.05Zm-3.81-3.75c2.48,0,4.51-1.97,4.51-4.51s-2.03-4.51-4.51-4.51-4.58,1.97-4.58,4.51,2.03,4.51,4.58,4.51"/><rect class="cls-1" x="444.74" y="160.7" width="7.62" height="44.32"/><path class="cls-1" d="m474.12,199.05c-2.86,0-5.22-.95-7.12-2.86-1.85-1.97-2.8-4.33-2.8-7.19s.95-5.22,2.8-7.13c1.91-1.97,4.26-2.93,7.12-2.93s5.15.95,7.06,2.93c1.91,1.91,2.86,4.26,2.86,7.13s-.96,5.22-2.86,7.19c-1.91,1.91-4.26,2.86-7.06,2.86m-12.4,2.03c3.37,3.24,7.5,4.89,12.4,4.89s9.03-1.65,12.4-4.89c3.37-3.24,5.08-7.31,5.08-12.08s-1.71-8.84-5.08-12.09c-3.37-3.24-7.5-4.89-12.4-4.89s-9.03,1.65-12.4,4.89c-3.37,3.24-5.08,7.31-5.08,12.09s1.71,8.84,5.08,12.08"/><path class="cls-1" d="m503.89,205.02v-16.85c0-5.28,3.37-8.58,8.65-8.58,1.14,0,2.23.13,3.18.32v-7.37c-.63-.13-1.4-.19-2.29-.19-4.51,0-8.01,2.03-9.54,5.4v-4.76h-7.56v32.04h7.56Z"/><path class="cls-1" d="m290.79,187.31v.31c-1.06,11.01-10.03,18.06-19.89,18.06-11.22,0-20.18-9.1-20.18-20.17s9.15-20.18,20.18-20.18c5.39,0,10.46,2.1,14.27,5.91,1.49,1.5,2.53,2.82,2.53,2.82l-14.39,14.27c-1.48,1.48-3.89,1.48-5.38,0-1.49-1.48-1.49-3.89,0-5.38l8.77-8.61c-1.77-.92-3.74-1.41-5.79-1.41-6.93,0-12.57,5.62-12.57,12.57s5.69,12.57,12.57,12.57c5.66,0,11.17-3.95,12.22-10.73v-.03s.09-.66.09-.66c.29-2.08,2.21-3.53,4.29-3.24,1.95.27,3.35,1.96,3.28,3.89m28.57-1.75c-9.79-17.4-27.9-29.09-48.64-29.09s-38.85,11.69-48.64,29.09c9.79,17.4,27.9,29.09,48.64,29.09s38.85-11.69,48.64-29.09"/><path class="cls-1" d="m0,116.3h66.99v-11.98H13.04v-43.44h49.55v-11.98H13.04V11.98h52.73V0H0v116.3Zm115.38,14.34l37.98-98.46h-12.31l-26.73,70.91-27.71-70.91h-12.31l34.07,85.98-3.75,9.46c-2.07,5.16-4.27,8.56-6.6,10.19-2.01,1.25-4.43,1.87-7.25,1.87-2.99,0-5.76-.46-8.31-1.39v11.41c2.33.98,5.11,1.47,8.31,1.47,6.85,0,12.31-2.12,16.38-6.36,3.04-3.31,5.79-8.04,8.23-14.18m109.6-64.55h-54.44c.43-6.85,3.46-12.71,9.09-17.6,5.62-4.89,12.24-7.33,19.85-7.33,7.06,0,13.08,2.46,18.05,7.38,4.97,4.92,7.46,10.77,7.46,17.56m13.04,10.84c.11-1.68.16-3.48.16-5.38,0-11.85-3.59-21.79-10.76-29.83-7.17-8.04-16.49-12.06-27.96-12.06-12.17,0-22.22,4.13-30.16,12.39-7.93,8.26-11.9,19.1-11.9,32.52v.65c0,13.04,3.91,23.51,11.74,31.42,7.82,7.91,18.04,11.86,30.64,11.86,6.63,0,12.73-1.13,18.3-3.39,5.57-2.26,10.83-6.17,15.77-11.74l-8.23-7.92c-3.8,3.99-7.62,6.91-11.45,8.77-3.83,1.86-8.63,2.79-14.39,2.79-8.86,0-16-2.72-21.43-8.17-5.43-5.44-8.31-12.75-8.64-21.91h68.3Zm7.54,39.37h77.79v-17.86h-48.08l46.07-52.42v-13.85h-70.78v17.86h42.9l-47.91,53.92v12.35Zm150.73-51.08h-44.9c.5-5.17,3-9.51,7.51-13.02,4.51-3.51,10.02-5.34,16.19-5.34,5.84,0,10.68,1.84,14.86,5.51,4.17,3.5,6.34,7.85,6.34,12.85m20.03,14.02c.17-2.17.33-4.51.33-7.01,0-12.02-3.84-22.04-11.68-30.21-7.68-8.18-17.7-12.19-29.88-12.19-12.85,0-23.37,4.01-31.72,12.19-8.18,8.18-12.35,18.86-12.35,32.22v.67c0,13.19,4.17,23.71,12.35,31.55,8.18,7.85,19.03,11.85,32.22,11.85,14.19,0,25.88-5.01,35.39-15.02l-12.02-11.68c-6.51,6.51-14.02,9.68-22.7,9.68-14.86,0-24.71-8.68-25.37-22.03h65.44Zm90.47,37.89c3.51,0,6.34-.33,8.68-1v-16.86c-.83.17-1.84.33-2.84.33-4.51,0-5.68-2.34-5.68-8.85v-26.54c0-20.87-11.52-33.72-31.38-33.72-11.85,0-21.2,5.51-25.21,13.69v-12.02h-19.86v84.14h19.86v-48.41c0-11.52,7.85-19.53,19.03-19.53s17.7,7.18,17.7,18.7v28.04c0,14.69,6.51,22.04,19.7,22.04m33.76-15.55c0,1.32-.9,2.39-2.14,2.39h-2.47v-4.6h2.47c1.23,0,2.14.98,2.14,2.22m3.95,10.21l-3.63-6.01c1.65-.9,2.47-2.39,2.47-4.37,0-2.71-1.97-4.69-4.86-4.69h-5.35v15.07h2.81v-5.51h1.97l3.29,5.51h3.3Zm4.21-7.25c0,6.26-4.53,10.63-10.71,10.63s-10.63-4.37-10.63-10.63,4.45-10.79,10.63-10.79,10.71,4.44,10.71,10.79m2.71,0c0-3.79-1.31-6.92-3.96-9.39-2.55-2.47-5.76-3.7-9.47-3.7s-6.92,1.23-9.47,3.7c-2.55,2.48-3.79,5.6-3.79,9.39s1.23,6.92,3.79,9.39c2.55,2.47,5.76,3.7,9.47,3.7s6.92-1.23,9.47-3.7c2.64-2.48,3.96-5.6,3.96-9.39"/></g></svg>